<svg width="244" height="30" viewBox="0 0 244 30" fill="none" xmlns="http://www.w3.org/2000/svg">
<path fill-rule="evenodd" clip-rule="evenodd" d="M15 30C23.2843 30 30 23.2843 30 15C30 6.71573 23.2843 0 15 0C6.71573 0 0 6.71573 0 15C0 23.2843 6.71573 30 15 30ZM17.0391 10.5852C17.3696 10.8998 17.5154 11.3438 17.4765 11.9172H20.9326C21.0833 10.9328 20.9812 10.0726 20.6264 9.33682C20.2764 8.59594 19.7052 8.02252 18.9129 7.61655C18.1255 7.20552 17.1533 7 15.9964 7C14.8589 7 13.8163 7.20298 12.8684 7.60894C11.9254 8.00983 11.1452 8.5731 10.5279 9.29876C9.91544 10.0244 9.53143 10.8719 9.37589 11.8411C9.19116 13.0235 9.41476 13.9597 10.0467 14.6499C10.6835 15.34 11.6192 15.8424 12.8538 16.157L14.3486 16.5376C14.8784 16.6644 15.3062 16.8065 15.6318 16.9638C15.9624 17.1212 16.1957 17.3064 16.3318 17.5195C16.4728 17.7326 16.519 17.9838 16.4703 18.2731C16.4217 18.5877 16.2856 18.8668 16.062 19.1104C15.8433 19.3539 15.5492 19.5442 15.1798 19.6813C14.8152 19.8183 14.3899 19.8868 13.9038 19.8868C13.3739 19.8868 12.9219 19.8005 12.5476 19.628C12.1733 19.4554 11.8962 19.2017 11.7164 18.8668C11.5414 18.5319 11.4806 18.1132 11.5341 17.6108H8.08531C7.90546 18.8237 8.00996 19.8284 8.39883 20.6251C8.78772 21.4218 9.41476 22.0181 10.28 22.4139C11.1501 22.8046 12.2073 23 13.4517 23C14.6961 23 15.7874 22.8122 16.7255 22.4367C17.6685 22.0612 18.4317 21.5208 19.015 20.8154C19.6032 20.1101 19.975 19.2651 20.1306 18.2807C20.2327 17.6565 20.2229 17.0932 20.1014 16.5909C19.9799 16.0885 19.7563 15.6445 19.4306 15.2588C19.1049 14.8681 18.6796 14.5357 18.1546 14.2617C17.6345 13.9826 17.0196 13.7593 16.3099 13.5918L15.085 13.2873C14.7593 13.2112 14.4652 13.1224 14.2027 13.0209C13.9451 12.9194 13.7288 12.8002 13.5538 12.6632C13.3837 12.5262 13.2646 12.3689 13.1965 12.1912C13.1285 12.0136 13.1163 11.8107 13.1601 11.5823C13.2087 11.2931 13.3278 11.0393 13.5173 10.8211C13.7069 10.5978 13.967 10.4253 14.2975 10.3035C14.6281 10.1767 15.0267 10.1132 15.4933 10.1132C16.1981 10.1132 16.7134 10.2705 17.0391 10.5852Z" fill="#040313"/>
<path d="M39 20.8069L40.8211 17.9167C41.3403 18.3193 41.834 18.65 42.302 18.9088C42.7701 19.1605 43.2308 19.3474 43.6843 19.4696C44.1377 19.5918 44.5985 19.6529 45.0665 19.6529C45.5785 19.6529 46.0173 19.5882 46.383 19.4588C46.7559 19.3222 47.0412 19.1317 47.2386 18.8873C47.4434 18.6428 47.5458 18.3516 47.5458 18.0137C47.5458 17.6183 47.4105 17.284 47.1399 17.0108C46.8693 16.7304 46.5109 16.4859 46.0648 16.2775C45.626 16.0618 45.147 15.8497 44.6277 15.6412C44.1011 15.4255 43.5636 15.1918 43.0151 14.9402C42.4739 14.6886 41.9766 14.383 41.5231 14.0235C41.0697 13.6569 40.7004 13.2147 40.4152 12.6971C40.1372 12.1794 39.9983 11.5503 39.9983 10.8098C39.9983 9.83203 40.2469 8.99444 40.7443 8.29706C41.2489 7.59248 41.9364 7.05327 42.8067 6.67941C43.6843 6.29837 44.6753 6.10784 45.7796 6.10784C46.5841 6.10784 47.4215 6.21209 48.2918 6.42059C49.1694 6.62908 50.0507 6.95261 50.9356 7.39118L49.4327 10.4431C48.9061 10.1268 48.3356 9.87876 47.7213 9.69902C47.1143 9.51209 46.5475 9.41863 46.0209 9.41863C45.6041 9.41863 45.2384 9.47974 44.9239 9.60196C44.6167 9.71699 44.3754 9.88235 44.1999 10.098C44.0317 10.3137 43.9476 10.5654 43.9476 10.8529C43.9476 11.2196 44.0792 11.5395 44.3425 11.8127C44.6131 12.0788 44.9641 12.3196 45.3956 12.5353C45.8271 12.751 46.2952 12.9703 46.7998 13.1931C47.3337 13.416 47.8749 13.6641 48.4234 13.9373C48.9792 14.2105 49.4875 14.534 49.9483 14.9078C50.4163 15.2745 50.7893 15.7167 51.0672 16.2343C51.3525 16.752 51.4951 17.3739 51.4951 18.1C51.4951 19.0562 51.2318 19.901 50.7052 20.6343C50.186 21.3605 49.4546 21.9248 48.5112 22.3275C47.575 22.7301 46.4853 22.9314 45.242 22.9314C44.0938 22.9314 42.9895 22.7516 41.929 22.3922C40.8759 22.0255 39.8996 21.4971 39 20.8069Z" fill="#040313"/>
<path d="M60.8307 22.3167C59.9531 22.6546 59.1011 22.8235 58.2747 22.8235C57.4044 22.8235 56.6328 22.6438 55.9599 22.2843C55.2944 21.9176 54.7752 21.4144 54.4022 20.7745C54.0292 20.1275 53.8427 19.3761 53.8427 18.5206V14.9833H51.9229V11.8235H54.0402V9.12745H57.4409V11.8235H60.4029V14.9833H57.4409V17.8843C57.4409 18.4523 57.6018 18.8908 57.9236 19.2C58.2454 19.5092 58.633 19.6637 59.0865 19.6637C59.5253 19.6637 59.9531 19.5271 60.37 19.2539L60.8307 22.3167Z" fill="#040313"/>
<path d="M68.477 28H64.6593L66.9302 22.6186L61.2915 11.8235H65.3724L68.6305 18.5961L71.4828 11.8235H75.3004L68.477 28Z" fill="#040313"/>
<path d="M80.599 22.6078H76.7375V6H80.599V22.6078Z" fill="#040313"/>
<path d="M93.3025 21.4324C91.9349 22.3598 90.4466 22.8235 88.8377 22.8235C87.6236 22.8235 86.5303 22.5719 85.5576 22.0686C84.5922 21.5582 83.8279 20.868 83.2648 19.998C82.7017 19.1209 82.4201 18.1359 82.4201 17.0431C82.4201 16.0007 82.6724 15.0732 83.177 14.2608C83.6817 13.4412 84.3691 12.7941 85.2394 12.3196C86.1171 11.8451 87.108 11.6078 88.2124 11.6078C89.3606 11.6078 90.3698 11.8703 91.2401 12.3951C92.1104 12.9199 92.7869 13.6497 93.2696 14.5843C93.7596 15.5118 94.0046 16.5902 94.0046 17.8196V18.1647H86.2816C86.4132 18.517 86.6107 18.8297 86.874 19.1029C87.1446 19.3761 87.481 19.5954 87.8833 19.7608C88.2855 19.919 88.7462 19.998 89.2655 19.998C90.3406 19.998 91.3498 19.6565 92.2933 18.9735L93.3025 21.4324ZM86.128 16.5686H90.6916C90.6477 16.166 90.5234 15.8101 90.3186 15.501C90.1139 15.1918 89.8433 14.951 89.5068 14.7784C89.1777 14.6059 88.8084 14.5196 88.3989 14.5196C87.982 14.5196 87.6127 14.6131 87.2909 14.8C86.9764 14.9797 86.7168 15.2242 86.512 15.5333C86.3145 15.8353 86.1865 16.1804 86.128 16.5686Z" fill="#040313"/>
<path d="M95.0578 20.8069L96.8788 17.9167C97.3981 18.3193 97.8917 18.65 98.3598 18.9088C98.8279 19.1605 99.2886 19.3474 99.7421 19.4696C100.195 19.5918 100.656 19.6529 101.124 19.6529C101.636 19.6529 102.075 19.5882 102.441 19.4588C102.814 19.3222 103.099 19.1317 103.296 18.8873C103.501 18.6428 103.604 18.3516 103.604 18.0137C103.604 17.6183 103.468 17.284 103.198 17.0108C102.927 16.7304 102.569 16.4859 102.123 16.2775C101.684 16.0618 101.205 15.8497 100.685 15.6412C100.159 15.4255 99.6214 15.1918 99.0729 14.9402C98.5317 14.6886 98.0344 14.383 97.5809 14.0235C97.1275 13.6569 96.7582 13.2147 96.4729 12.6971C96.195 12.1794 96.0561 11.5503 96.0561 10.8098C96.0561 9.83203 96.3047 8.99444 96.802 8.29706C97.3067 7.59248 97.9941 7.05327 98.8644 6.67941C99.7421 6.29837 100.733 6.10784 101.837 6.10784C102.642 6.10784 103.479 6.21209 104.35 6.42059C105.227 6.62908 106.108 6.95261 106.993 7.39118L105.49 10.4431C104.964 10.1268 104.393 9.87876 103.779 9.69902C103.172 9.51209 102.605 9.41863 102.079 9.41863C101.662 9.41863 101.296 9.47974 100.982 9.60196C100.675 9.71699 100.433 9.88235 100.258 10.098C100.089 10.3137 100.005 10.5654 100.005 10.8529C100.005 11.2196 100.137 11.5395 100.4 11.8127C100.671 12.0788 101.022 12.3196 101.453 12.5353C101.885 12.751 102.353 12.9703 102.858 13.1931C103.391 13.416 103.933 13.6641 104.481 13.9373C105.037 14.2105 105.545 14.534 106.006 14.9078C106.474 15.2745 106.847 15.7167 107.125 16.2343C107.41 16.752 107.553 17.3739 107.553 18.1C107.553 19.0562 107.29 19.901 106.763 20.6343C106.244 21.3605 105.512 21.9248 104.569 22.3275C103.633 22.7301 102.543 22.9314 101.3 22.9314C100.152 22.9314 99.0473 22.7516 97.9868 22.3922C96.9337 22.0255 95.9573 21.4971 95.0578 20.8069Z" fill="#040313"/>
<path d="M109.451 22.6078V6.43137H113.049V12.9775C113.831 12.0644 114.914 11.6078 116.296 11.6078C117.656 11.6078 118.717 12.0248 119.477 12.8588C120.238 13.6928 120.618 14.8539 120.618 16.3422V22.6078H117.02V17.302C117.02 16.4967 116.848 15.8748 116.505 15.4363C116.168 14.9905 115.689 14.7676 115.067 14.7676C114.431 14.7676 113.934 14.9905 113.575 15.4363C113.224 15.882 113.049 16.5039 113.049 17.302V22.6078H109.451Z" fill="#040313"/>
<path d="M128.166 22.8235C127.018 22.8235 125.994 22.5827 125.094 22.101C124.202 21.6121 123.5 20.9471 122.988 20.1059C122.476 19.2575 122.22 18.2941 122.22 17.2157C122.22 16.1373 122.476 15.1775 122.988 14.3363C123.5 13.4879 124.202 12.8229 125.094 12.3412C125.994 11.8523 127.018 11.6078 128.166 11.6078C129.299 11.6078 130.309 11.8523 131.194 12.3412C132.086 12.8229 132.784 13.4879 133.289 14.3363C133.801 15.1775 134.057 16.1373 134.057 17.2157C134.057 18.2941 133.801 19.2575 133.289 20.1059C132.784 20.9471 132.086 21.6121 131.194 22.101C130.309 22.5827 129.299 22.8235 128.166 22.8235ZM128.144 19.6529C128.568 19.6529 128.948 19.5487 129.285 19.3402C129.621 19.1317 129.885 18.8405 130.075 18.4667C130.272 18.0928 130.371 17.6686 130.371 17.1941C130.371 16.734 130.272 16.3206 130.075 15.9539C129.885 15.5873 129.621 15.2997 129.285 15.0912C128.948 14.8827 128.568 14.7784 128.144 14.7784C127.712 14.7784 127.328 14.8827 126.992 15.0912C126.656 15.2997 126.389 15.5873 126.191 15.9539C126.001 16.3206 125.906 16.734 125.906 17.1941C125.906 17.6686 126.001 18.0928 126.191 18.4667C126.389 18.8405 126.656 19.1317 126.992 19.3402C127.328 19.5487 127.712 19.6529 128.144 19.6529Z" fill="#040313"/>
<path d="M139.498 28H135.889V11.8235H139.048L139.224 13.2578C139.677 12.7402 140.222 12.3376 140.858 12.05C141.495 11.7552 142.186 11.6078 142.932 11.6078C143.912 11.6078 144.782 11.8523 145.543 12.3412C146.303 12.8229 146.903 13.4879 147.342 14.3363C147.781 15.1775 148 16.1373 148 17.2157C148 18.2941 147.781 19.2575 147.342 20.1059C146.903 20.9471 146.303 21.6121 145.543 22.101C144.782 22.5827 143.912 22.8235 142.932 22.8235C142.252 22.8235 141.619 22.7049 141.034 22.4676C140.456 22.2232 139.944 21.8853 139.498 21.4539V28ZM141.912 19.6529C142.38 19.6529 142.793 19.5487 143.151 19.3402C143.517 19.1317 143.798 18.8441 143.996 18.4775C144.201 18.1036 144.303 17.683 144.303 17.2157C144.303 16.7412 144.201 16.3206 143.996 15.9539C143.791 15.5873 143.51 15.2997 143.151 15.0912C142.793 14.8755 142.38 14.7676 141.912 14.7676C141.473 14.7676 141.074 14.8647 140.716 15.0588C140.365 15.2458 140.083 15.5082 139.871 15.8461C139.659 16.1768 139.535 16.5614 139.498 17V17.4637C139.535 17.8879 139.659 18.2654 139.871 18.5961C140.083 18.9268 140.365 19.1856 140.716 19.3725C141.074 19.5595 141.473 19.6529 141.912 19.6529Z" fill="#040313"/>
<path d="M161.593 22.767C160.352 22.767 159.206 22.5605 158.156 22.1476C157.113 21.7346 156.206 21.1544 155.435 20.4068C154.664 19.6521 154.065 18.7693 153.639 17.7583C153.213 16.7401 153 15.633 153 14.4369C153 13.2337 153.213 12.1265 153.639 11.1155C154.065 10.0974 154.664 9.21456 155.435 8.46699C156.206 7.71942 157.113 7.13916 158.156 6.72621C159.206 6.31327 160.352 6.1068 161.593 6.1068C162.834 6.1068 163.977 6.31327 165.019 6.72621C166.062 7.13916 166.969 7.71942 167.741 8.46699C168.512 9.21456 169.11 10.0974 169.536 11.1155C169.962 12.1265 170.175 13.2337 170.175 14.4369C170.175 15.633 169.962 16.7401 169.536 17.7583C169.11 18.7693 168.512 19.6521 167.741 20.4068C166.969 21.1544 166.062 21.7346 165.019 22.1476C163.977 22.5605 162.834 22.767 161.593 22.767ZM161.593 21.101C162.541 21.101 163.415 20.9337 164.215 20.599C165.023 20.2644 165.725 19.7981 166.319 19.2C166.914 18.5948 167.373 17.89 167.697 17.0854C168.027 16.2738 168.192 15.3909 168.192 14.4369C168.192 13.4828 168.027 12.6 167.697 11.7883C167.373 10.9767 166.914 10.2718 166.319 9.67379C165.725 9.06861 165.023 8.60227 164.215 8.27476C163.415 7.94013 162.541 7.77282 161.593 7.77282C160.646 7.77282 159.768 7.94013 158.96 8.27476C158.16 8.60227 157.462 9.06861 156.867 9.67379C156.272 10.2718 155.809 10.9767 155.479 11.7883C155.148 12.6 154.983 13.4828 154.983 14.4369C154.983 15.3909 155.148 16.2738 155.479 17.0854C155.809 17.8971 156.272 18.6055 156.867 19.2107C157.462 19.8087 158.16 20.2751 158.96 20.6097C159.768 20.9372 160.646 21.101 161.593 21.101Z" fill="#040313"/>
<path d="M174.637 22.4466H172.831V11.767H174.417L174.494 13.8816C174.876 13.1482 175.412 12.5786 176.103 12.1728C176.8 11.7599 177.601 11.5534 178.504 11.5534C178.703 11.5534 178.905 11.5641 179.11 11.5854C179.316 11.6068 179.521 11.6388 179.727 11.6816L179.507 13.2621C179.103 13.1696 178.703 13.1233 178.306 13.1233C177.586 13.1233 176.947 13.2942 176.389 13.6359C175.838 13.9777 175.408 14.4476 175.1 15.0456C174.792 15.6437 174.637 16.3307 174.637 17.1068V22.4466Z" fill="#040313"/>
<path d="M182.547 8.39223C182.239 8.39223 181.978 8.289 181.765 8.08252C181.56 7.86893 181.457 7.61262 181.457 7.31359C181.457 7.02168 181.56 6.77249 181.765 6.56602C181.978 6.35955 182.239 6.25631 182.547 6.25631C182.863 6.25631 183.128 6.35955 183.341 6.56602C183.554 6.77249 183.66 7.02168 183.66 7.31359C183.66 7.61262 183.554 7.86893 183.341 8.08252C183.128 8.289 182.863 8.39223 182.547 8.39223ZM183.451 22.4466H181.644V11.767H183.451V22.4466Z" fill="#040313"/>
<path d="M191.614 22.4466C190.557 22.4466 189.606 22.2081 188.761 21.7311C187.924 21.254 187.263 20.6061 186.778 19.7874C186.293 18.9615 186.051 18.0324 186.051 17C186.051 15.9605 186.293 15.0314 186.778 14.2126C187.263 13.3939 187.924 12.746 188.761 12.2689C189.606 11.7919 190.56 11.5534 191.625 11.5534C192.477 11.5534 193.26 11.71 193.972 12.0233C194.684 12.3294 195.29 12.7566 195.79 13.3049L195.878 11.767H197.475V22.1689C197.475 23.365 197.233 24.3974 196.748 25.266C196.264 26.1417 195.573 26.8146 194.677 27.2845C193.781 27.7615 192.716 28 191.482 28C189.734 28 188.214 27.4375 186.921 26.3126L187.714 24.9029C188.721 25.9139 189.951 26.4194 191.405 26.4194C192.279 26.4194 193.032 26.2414 193.664 25.8854C194.303 25.5366 194.795 25.0417 195.14 24.401C195.492 23.7602 195.669 23.0019 195.669 22.1262V20.8126C195.169 21.3181 194.571 21.7168 193.873 22.0087C193.182 22.3006 192.43 22.4466 191.614 22.4466ZM191.769 20.8981C192.488 20.8981 193.142 20.7414 193.73 20.4282C194.317 20.1078 194.787 19.6735 195.14 19.1252C195.492 18.5699 195.669 17.9434 195.669 17.2456V16.7544C195.669 16.0495 195.492 15.423 195.14 14.8748C194.787 14.3265 194.317 13.8958 193.73 13.5825C193.142 13.2621 192.488 13.1019 191.769 13.1019C191.027 13.1019 190.362 13.2728 189.775 13.6146C189.187 13.9563 188.721 14.4227 188.375 15.0136C188.038 15.5974 187.869 16.2595 187.869 17C187.869 17.7405 188.038 18.4061 188.375 18.9971C188.721 19.588 189.187 20.0544 189.775 20.3961C190.362 20.7307 191.027 20.8981 191.769 20.8981Z" fill="#040313"/>
<path d="M201.739 8.39223C201.431 8.39223 201.17 8.289 200.957 8.08252C200.751 7.86893 200.648 7.61262 200.648 7.31359C200.648 7.02168 200.751 6.77249 200.957 6.56602C201.17 6.35955 201.431 6.25631 201.739 6.25631C202.055 6.25631 202.319 6.35955 202.532 6.56602C202.745 6.77249 202.852 7.02168 202.852 7.31359C202.852 7.61262 202.745 7.86893 202.532 8.08252C202.319 8.289 202.055 8.39223 201.739 8.39223ZM202.642 22.4466H200.836V11.767H202.642V22.4466Z" fill="#040313"/>
<path d="M216.436 22.4466H214.629V16.4874C214.629 15.4764 214.331 14.6683 213.736 14.0631C213.142 13.4579 212.352 13.1553 211.368 13.1553C210.347 13.1553 209.517 13.4828 208.878 14.1379C208.246 14.7858 207.931 15.6401 207.931 16.701V22.4466H206.124V11.767H207.699L207.765 13.4971C208.169 12.8706 208.702 12.39 209.363 12.0553C210.024 11.7207 210.802 11.5534 211.698 11.5534C213.16 11.5534 214.313 11.9806 215.158 12.835C216.01 13.6893 216.436 14.8605 216.436 16.3485V22.4466Z" fill="#040313"/>
<path d="M228.521 22.4466H226.968L226.847 21.0369C226.443 21.5424 225.929 21.9411 225.304 22.233C224.68 22.5178 223.982 22.6602 223.211 22.6602C222.418 22.6602 221.709 22.5107 221.085 22.2117C220.46 21.9055 219.968 21.489 219.608 20.9621C219.256 20.4353 219.08 19.8372 219.08 19.168C219.08 18.4631 219.271 17.8437 219.653 17.3097C220.042 16.7686 220.567 16.345 221.228 16.0388C221.896 15.7327 222.653 15.5796 223.497 15.5796C224.048 15.5796 224.61 15.6472 225.183 15.7825C225.756 15.9107 226.266 16.0887 226.714 16.3165V15.868C226.714 15.2984 226.568 14.8142 226.274 14.4155C225.98 14.0097 225.587 13.7 225.095 13.4864C224.603 13.2657 224.059 13.1553 223.464 13.1553C222.95 13.1553 222.425 13.2479 221.889 13.433C221.353 13.611 220.839 13.8887 220.347 14.266L219.752 12.7602C220.391 12.3615 221.063 12.0625 221.768 11.8631C222.473 11.6566 223.171 11.5534 223.861 11.5534C224.816 11.5534 225.638 11.7421 226.329 12.1194C227.027 12.4896 227.566 13.0201 227.948 13.7107C228.33 14.3942 228.521 15.2058 228.521 16.1456V22.4466ZM223.531 21.0583C224.096 21.0583 224.614 20.9443 225.084 20.7165C225.554 20.4887 225.936 20.1612 226.23 19.734C226.523 19.2997 226.685 18.7871 226.714 18.1961V18.0146C226.31 17.7084 225.855 17.4735 225.348 17.3097C224.849 17.1388 224.338 17.0534 223.817 17.0534C223.002 17.0534 222.319 17.2456 221.768 17.6301C221.224 18.0146 220.953 18.5023 220.953 19.0932C220.953 19.4634 221.063 19.7981 221.283 20.0971C221.511 20.3961 221.819 20.6311 222.208 20.8019C222.598 20.9728 223.038 21.0583 223.531 21.0583Z" fill="#040313"/>
<path d="M233.644 22.4466H231.727V6H233.644V22.4466Z" fill="#040313"/>
<path d="M236.288 21.5175L236.762 19.8728C237.026 20.1149 237.327 20.3249 237.665 20.5029C238.003 20.6809 238.359 20.8197 238.734 20.9194C239.108 21.012 239.487 21.0583 239.869 21.0583C240.552 21.0583 241.103 20.9123 241.521 20.6204C241.94 20.3285 242.149 19.9476 242.149 19.4777C242.149 19.1359 242.039 18.8547 241.819 18.634C241.606 18.4061 241.323 18.2104 240.97 18.0466C240.618 17.8828 240.24 17.7262 239.836 17.5767C239.344 17.3916 238.855 17.1816 238.37 16.9466C237.886 16.7117 237.482 16.4019 237.158 16.0175C236.843 15.633 236.685 15.1275 236.685 14.501C236.685 13.9029 236.839 13.3832 237.147 12.9417C237.456 12.5003 237.886 12.1586 238.436 11.9165C238.995 11.6744 239.634 11.5534 240.353 11.5534C241.44 11.5534 242.509 11.8168 243.559 12.3437L243.019 13.9243C242.784 13.7748 242.513 13.643 242.204 13.5291C241.896 13.4081 241.58 13.3155 241.257 13.2515C240.934 13.1874 240.629 13.1553 240.342 13.1553C239.806 13.1553 239.373 13.2764 239.042 13.5184C238.712 13.7534 238.547 14.0702 238.547 14.4689C238.547 14.6968 238.613 14.9068 238.745 15.099C238.884 15.2841 239.116 15.4693 239.439 15.6544C239.762 15.8395 240.21 16.046 240.783 16.2738C241.29 16.4731 241.789 16.701 242.281 16.9573C242.773 17.2065 243.181 17.5304 243.504 17.9291C243.835 18.3207 244 18.8333 244 19.467C244 20.0935 243.827 20.6489 243.482 21.133C243.144 21.61 242.671 21.9838 242.061 22.2544C241.459 22.5249 240.761 22.6602 239.968 22.6602C238.653 22.6602 237.427 22.2793 236.288 21.5175Z" fill="#040313"/>
</svg>
